<?xml version="1.0" encoding="UTF-8"?>
<svg xmlns="http://www.w3.org/2000/svg" viewBox="640 450 1220 1600">
<style>
  .yq-w { fill: #111111; }
  .yq-g { fill: #D4A557; }
  @media (prefers-color-scheme: dark) {
    .yq-w { fill: #FFFFFF; }
  }
</style>
<path d="M0 0 C7.21425601 6.5393374 13.4954074 13.66209252 19.61523438 21.2199707 C22.88234588 25.25184497 26.27141523 29.10989157 29.80273438 32.9074707 C47.06939718 51.53538058 47.06939718 51.53538058 46.70898438 63.86450195 C45.42674947 73.46893456 37.34577419 78.56424144 30.21459961 84.15649414 C20.95791848 91.03408069 20.95791848 91.03408069 15.99414062 100.9387207 C15.52299622 109.96184982 19.17843881 115.47699025 25.05664062 122.0402832 C27.09999458 124.26825162 29.17416515 126.46536153 31.25585938 128.6574707 C46.6689088 144.94295688 46.6689088 144.94295688 46.86523438 154.7199707 C46.64629585 161.29623519 44.79701136 165.16258348 40.30273438 169.9074707 C36.43311362 173.41939542 32.40465107 176.67223194 28.30273438 179.9074707 C19.92649339 186.51061105 19.92649339 186.51061105 15.92773438 196.13793945 C15.6390697 201.52333984 16.64534981 204.76885132 20.30273438 208.9074707 C23.59307376 211.68597952 25.58841156 212.80721487 29.86523438 213.4074707 C33.98682608 212.80796645 35.5271931 212.00021669 38.30273438 208.9074707 C40.08909352 204.88816262 40.60444597 202.88803337 39.30273438 198.6574707 C36.93562632 195.40269713 34.99603199 194.41493912 31.30273438 192.9074707 C29.96513691 192.24940136 28.63086436 191.58444409 27.30273438 190.9074707 C32.22953991 191.0255423 35.37969198 191.15749876 39.30273438 194.3449707 C42.12388195 197.95956603 42.64235392 200.17151275 42.59179688 204.8059082 C42.12395741 208.20722753 40.46007309 210.31866425 38.30273438 212.9074707 C33.81681736 215.89808205 29.55945517 215.48479842 24.30273438 214.9074707 C15.12137948 210.78522973 7.75390107 200.50835028 1.30273438 192.9074707 C-0.14857402 191.2090634 -1.60147889 189.51203726 -3.05517578 187.81567383 C-4.10777953 186.58573807 -5.15824032 185.35396507 -6.20654297 184.12036133 C-9.11611433 180.70553506 -12.10607548 177.41044276 -15.19726562 174.1574707 C-19.91002997 168.87524734 -22.23427751 163.26413456 -23.19726562 156.2824707 C-21.50518374 144.86091801 -12.74048355 138.36690421 -4.00976562 131.8449707 C2.15827431 127.19724082 6.95685555 123.38853212 8.30273438 115.4074707 C8.77743715 106.32686593 2.93859556 100.39472635 -2.69726562 93.9074707 C-4.53626538 91.89326393 -6.39830919 89.90090914 -8.25976562 87.9074707 C-15.2563653 80.39349564 -21.90459517 73.04150482 -23.07226562 62.5324707 C-22.12621849 53.38734843 -16.40025184 47.75085206 -9.69726562 41.9074707 C-6.91785089 39.71861877 -4.09861183 37.58292147 -1.21508789 35.53295898 C3.57936752 32.03131644 7.14508385 27.89768123 8.55273438 22.0324707 C8.92398438 20.4855957 8.92398438 20.4855957 9.30273438 18.9074707 C8.0471875 18.50399414 6.79164063 18.10051758 5.49804688 17.68481445 C0.95711566 16.17205796 -3.4687369 14.43676021 -7.90600586 12.64575195 C-29.71601028 3.85236717 -53.79596299 -3.5306419 -76.69726562 5.9074707 C-95.30917329 15.48608306 -105.49708369 33.82632801 -111.88476562 53.1574707 C-115.90345045 66.95495526 -117.82756582 81.41868685 -117.90039062 95.7668457 C-117.9073143 96.69665756 -117.91423798 97.62646942 -117.92137146 98.5844574 C-117.93868784 101.60883819 -117.94497396 104.63304247 -117.94726562 107.6574707 C-117.94860504 108.70013092 -117.94994446 109.74279114 -117.95132446 110.81704712 C-117.94750134 124.62814202 -117.59270859 138.33507097 -116.38476562 152.0949707 C-116.3189328 152.84742065 -116.25309998 153.59987061 -116.18527222 154.37512207 C-115.60227629 160.92394904 -114.96185404 167.46643233 -114.26074219 174.00366211 C-112.07077082 194.45589841 -111.37741604 214.81129824 -111.32845688 235.37307739 C-111.32235641 237.37763971 -111.31058928 239.38218219 -111.29873657 241.38671875 C-111.12486286 278.62190493 -116.43721077 319.02962424 -143.69726562 346.9074707 C-156.54955244 359.10066589 -175.08394182 368.50377004 -192.69726562 370.9074707 C-192.69726562 371.5674707 -192.69726562 372.2274707 -192.69726562 372.9074707 C-191.30158727 373.22066214 -189.9057148 373.53298859 -188.50976562 373.8449707 C-187.34380859 374.10600586 -187.34380859 374.10600586 -186.15429688 374.37231445 C-185.34347656 374.54891602 -184.53265625 374.72551758 -183.69726562 374.9074707 C-182.91738281 375.08793945 -182.1375 375.2684082 -181.33398438 375.4543457 C-160.76596205 378.98899843 -143.44426133 369.55205299 -127.13476562 358.1574707 C-119.81403022 352.93819555 -113.01093303 347.2218412 -106.27441406 341.27856445 C-103.01527821 338.4452352 -99.62721584 335.76729598 -96.26367188 333.05981445 C-93.689646 330.90108042 -91.30240963 328.61362988 -88.88476562 326.2824707 C-78.99338176 317.27452782 -66.32741725 312.20211227 -52.93164062 312.55200195 C-29.5962277 315.11664275 -1.07422159 334.92726976 13.35351562 352.71435547 C23.81811137 366.09414373 23.81811137 366.09414373 23.36523438 374.0949707 C22.07660534 378.71887488 20.70868538 380.58261377 17.30273438 383.9074707 C13.24602082 385.25970855 9.54438483 385.45165433 5.30273438 384.9074707 C1.8321327 382.83987821 -0.47451956 380.79802638 -1.69726562 376.9074707 C-1.77500023 374.57543259 -1.78694291 372.23908011 -1.69726562 369.9074707 C-0.52749874 372.24700447 0.56244311 374.54375712 1.55273438 376.9699707 C3.73808792 380.63824272 5.23454263 381.6557194 9.30273438 382.9074707 C13.44478732 382.33615306 15.62575797 381.51501363 18.74023438 378.7199707 C20.70650846 375.18067735 20.66621968 372.90580902 20.30273438 368.9074707 C20.24085938 367.7627832 20.24085938 367.7627832 20.17773438 366.5949707 C19.37718104 364.65792204 19.37718104 364.65792204 16.92773438 363.6574707 C-0.93605883 359.96151349 -16.20625121 370.20515315 -30.83203125 379.35742188 C-42.54722176 386.68582469 -54.43388288 393.53549863 -66.69726562 399.9074707 C-67.53032227 400.3410791 -68.36337891 400.7746875 -69.22167969 401.22143555 C-84.4002014 409.02226481 -99.68357684 414.00229201 -116.69726562 415.9074707 C-117.66664063 416.01833008 -118.63601563 416.12918945 -119.63476562 416.2434082 C-150.48972353 419.27966736 -174.72315995 408.54566388 -201.69726562 394.9074707 C-202.54869141 394.48014648 -203.40011719 394.05282227 -204.27734375 393.61254883 C-215.89275326 387.71520444 -226.74491019 380.74605192 -237.57226562 373.5324707 C-238.56037735 372.87456543 -238.56037735 372.87456543 -239.56845093 372.20336914 C-241.46656118 370.93552872 -243.36024986 369.66140963 -245.25195312 368.3840332 C-245.81367722 368.00727448 -246.37540131 367.63051575 -246.95414734 367.24234009 C-250.73927571 364.66713808 -254.2224304 361.87796812 -257.69726562 358.9074707 C-257.36726563 357.2574707 -257.03726562 355.6074707 -256.69726562 353.9074707 C-255.42753906 353.5671582 -254.1578125 353.2268457 -252.84960938 352.8762207 C-231.81608734 347.04110135 -213.06491208 337.89899224 -201.71386719 318.20092773 C-191.41230917 299.54688582 -186.36449449 279.46104263 -184.44726562 258.3449707 C-184.36710205 257.47291992 -184.28693848 256.60086914 -184.2043457 255.70239258 C-183.07808975 241.37631215 -183.59177509 226.92570469 -184.38476562 212.5949707 C-184.44470703 211.47519333 -184.44470703 211.47519333 -184.50585938 210.33279419 C-185.24315967 196.94252013 -186.63820057 183.66157272 -188.19726562 170.3449707 C-194.62037 115.40816715 -201.84279771 47.22463049 -165.69726562 0.3449707 C-164.39073958 -1.157927 -163.05668634 -2.63730178 -161.69726562 -4.0925293 C-160.92769531 -4.94073242 -160.158125 -5.78893555 -159.36523438 -6.6628418 C-117.77471292 -50.5457542 -41.11405863 -36.52520744 0 0 Z " class="yq-g" transform="translate(1481.697265625,535.092529296875)"/>
<path d="M0 0 C0.75796875 0.60328125 1.5159375 1.2065625 2.296875 1.828125 C3.05484375 2.41078125 3.8128125 2.9934375 4.59375 3.59375 C23.25151983 18.90598869 29.49749988 42.03187427 33.296875 64.828125 C33.296875 85.948125 33.296875 107.068125 33.296875 128.828125 C131.636875 128.498125 229.976875 128.168125 331.296875 127.828125 C328.656875 124.528125 326.016875 121.228125 323.296875 117.828125 C311.04691701 98.98768962 310.1406075 71.79773445 314.48168945 50.21362305 C319.92483206 27.7669383 332.51214989 8.07021738 352.296875 -4.171875 C372.00882353 -14.9650259 395.1507735 -17.28582244 416.97265625 -12.1484375 C437.88539766 -6.00485894 453.9976904 7.13424613 464.9140625 25.984375 C472.24841712 41.06745455 473.87344219 56.77392964 471.04345703 73.1640625 C470.91091585 73.94263107 470.77837467 74.72119965 470.64181709 75.52336121 C469.13067542 84.14163192 467.14355923 92.63551732 465.1015625 101.140625 C464.7042274 102.81393849 464.30735584 104.4873621 463.91091919 106.16088867 C463.08931702 109.62377386 462.26382132 113.08569668 461.43505859 116.546875 C460.37218891 120.98617337 459.31697775 125.42724889 458.26429558 129.86897278 C457.44970852 133.30429505 456.63244108 136.73897474 455.8142128 140.1734314 C455.42373705 141.81280649 455.03380772 143.45231183 454.64443588 145.09194946 C454.10388671 147.36530376 453.56003146 149.63784018 453.01513672 151.91015625 C452.77512939 152.9229364 452.77512939 152.9229364 452.53027344 153.95617676 C451.41146604 158.59894292 451.41146604 158.59894292 450.296875 160.828125 C312.026875 160.828125 173.756875 160.828125 31.296875 160.828125 C30.306875 165.778125 29.316875 170.728125 28.296875 175.828125 C24.06978846 189.70528304 17.91408206 201.89544045 8.296875 212.828125 C7.29720703 213.97087891 7.29720703 213.97087891 6.27734375 215.13671875 C-12.61535857 235.36137411 -41.77312081 242.78457811 -68.56056213 244.00367737 C-72.39091687 244.05638932 -76.2162954 244.0539604 -80.046875 244.0234375 C-81.43648064 244.01969144 -82.82608898 244.01685205 -84.21569824 244.01486206 C-87.8125991 244.0073506 -91.40932948 243.98781534 -95.00616455 243.9654541 C-98.70070043 243.94472077 -102.39526561 243.9356917 -106.08984375 243.92578125 C-113.29441969 243.90562295 -120.49853208 243.8664473 -127.703125 243.828125 C-127.703125 230.628125 -127.703125 217.428125 -127.703125 203.828125 C-100.78348214 206.77455357 -100.78348214 206.77455357 -92.390625 208.015625 C-69.96260915 211.01619855 -45.12455802 207.7192056 -26.703125 193.828125 C-18.42199487 187.06573495 -14.12018786 178.3441495 -10.51953125 168.48046875 C-10.24661255 167.74244019 -9.97369385 167.00441162 -9.69250488 166.24401855 C-9.02594048 164.43998719 -8.3640512 162.6342296 -7.703125 160.828125 C-9.6519458 160.85169067 -9.6519458 160.85169067 -11.64013672 160.87573242 C-16.54925108 160.93082309 -21.45833934 160.96475714 -26.36767578 160.99291992 C-28.47579573 161.00782906 -30.58388567 161.02816349 -32.69189453 161.05444336 C-60.71514932 161.39456378 -87.376004 157.7918684 -108.703125 137.828125 C-125.87545927 119.99183405 -130.09930424 95.0537284 -129.93530273 71.17016602 C-129.49266363 47.9460712 -122.33747568 24.66288955 -105.703125 7.828125 C-94.29563928 -2.81886167 -81.06363148 -10.00726986 -65.703125 -13.171875 C-64.836875 -13.35492187 -63.970625 -13.53796875 -63.078125 -13.7265625 C-41.06088534 -16.63161495 -18.09877319 -13.60365305 0 0 Z M-76.82421875 29.7578125 C-88.73474904 42.88168163 -92.22279596 59.6258239 -91.95703125 76.8828125 C-90.96843804 92.24403002 -86.82654456 104.98118419 -76.703125 116.828125 C-64.86104439 126.48243139 -50.15227123 129.01735497 -35.26953125 128.92578125 C-34.39159409 128.9243663 -33.51365692 128.92295135 -32.6091156 128.92149353 C-29.82791618 128.91593321 -27.04679974 128.90338821 -24.265625 128.890625 C-22.37044388 128.88560487 -20.47526148 128.88104286 -18.58007812 128.87695312 C-13.95439552 128.8659768 -9.32877429 128.84873982 -4.703125 128.828125 C-4.63295377 121.02071415 -4.57997887 113.21338012 -4.54768848 105.4057312 C-4.53217401 101.77851046 -4.51120382 98.15150878 -4.47680664 94.52441406 C-3.53404307 59.13804375 -3.53404307 59.13804375 -19.703125 28.828125 C-36.11717661 13.57673538 -60.70442997 14.7126763 -76.82421875 29.7578125 Z M364.296875 30.828125 C354.41423909 44.10268256 350.9370083 57.31806163 350.984375 73.640625 C350.96826172 74.73955078 350.95214844 75.83847656 350.93554688 76.97070312 C350.92720047 91.134558 354.67859344 104.60529881 364.4921875 115.20703125 C377.42301525 126.82238518 393.09171029 129.03312312 409.796875 128.890625 C411.31667969 128.88385742 411.31667969 128.88385742 412.8671875 128.87695312 C415.34381327 128.86527093 417.82031157 128.84889082 420.296875 128.828125 C422.0178654 121.48677925 423.71427355 114.1400913 425.38184357 106.78643417 C426.15741056 103.36967338 426.94045394 99.95504321 427.74267578 96.54443359 C435.67545276 64.54843145 435.67545276 64.54843145 426.484375 34.015625 C420.48077404 25.58951839 412.81581081 20.55742955 402.671875 18.578125 C388.63643399 16.42178838 374.06033398 19.91331473 364.296875 30.828125 Z " class="yq-w" transform="translate(1110.703125,1438.171875)"/>
<path d="M0 0 C7.23622225 3.7981981 12.13674401 10.56520575 16.9140625 16.96875 C21.17164917 22.6651018 24.99087488 27.03602079 31.9140625 29.34375 C38.31889654 29.8271337 42.32021029 28.45788814 47.30078125 24.3984375 C48.06003906 23.67914063 48.81929687 22.95984375 49.6015625 22.21875 C74.04614765 -0.38789642 74.04614765 -0.38789642 86.82421875 -0.078125 C97.0462274 1.31754748 102.95275093 10.78548142 108.9140625 18.34375 C115.50755485 26.6683318 115.50755485 26.6683318 125.07421875 30.75390625 C131.14963974 31.16032378 135.32277606 29.24526571 139.9140625 25.34375 C142.89618673 21.89566886 143.495253 18.72984847 143.34375 14.27734375 C142.60696682 10.96181942 140.49611805 9.37250793 137.9140625 7.34375 C135.06081813 5.91712781 133.07951701 6.03341132 129.9140625 6.34375 C125.83360356 8.52632106 124.53118318 10.85165126 123.1015625 15.09375 C122.68935293 16.50573858 122.28795486 17.92113516 121.9140625 19.34375 C121.5840625 19.34375 121.2540625 19.34375 120.9140625 19.34375 C120.56251144 13.36738191 121.41504871 10.29448057 125.25390625 5.76171875 C128.3243889 3.13916534 132.00259302 3.13583136 135.9140625 3.34375 C139.90739087 4.5677587 142.41150192 6.66843423 144.9140625 10.03125 C146.42257973 15.02821332 146.29972413 19.47132696 144.00390625 24.23046875 C141.33278054 28.25979397 137.89040774 31.31328316 134.20703125 34.40234375 C131.60446889 36.6058761 129.10741157 38.90593353 126.6015625 41.21875 C122.06742296 45.35834425 117.39456113 49.26486648 112.609375 53.109375 C109.88499638 55.36784539 107.31000593 57.73871578 104.7265625 60.15625 C97.69887107 66.46683006 92.44055833 69.17648132 82.80078125 68.77734375 C71.8666427 67.13500359 65.03771335 56.10712929 58.7265625 47.96875 C54.97167404 43.20408078 51.7499322 40.2890399 45.9140625 38.34375 C39.18373713 37.83580092 35.23441348 39.38605415 30.08984375 43.7265625 C29.14496094 44.63148438 28.20007812 45.53640625 27.2265625 46.46875 C4.54720988 67.8044043 4.54720988 67.8044043 -9.12109375 67.609375 C-13.23999549 67.24035614 -15.02768785 66.13015524 -18.0859375 63.34375 C-18.735625 62.75722656 -19.3853125 62.17070313 -20.0546875 61.56640625 C-25.33407613 56.57515327 -29.81345889 51.07983071 -34.19213867 45.30517578 C-36.92715093 41.7149964 -39.67340366 38.32902351 -43.0859375 35.34375 C-46.54737928 34.99173897 -48.94722562 34.77439406 -52.0859375 36.34375 C-51.85285702 48.69701553 -42.64399944 57.41991848 -34.2734375 65.59375 C-33.43490234 66.439375 -32.59636719 67.285 -31.73242188 68.15625 C-24.15486929 75.6580853 -16.10730406 81.7192045 -6.4609375 86.28125 C-5.07154257 86.95818555 -3.68222176 87.63527324 -2.29296875 88.3125 C-1.59510254 88.64894531 -0.89723633 88.98539063 -0.17822266 89.33203125 C5.20207672 91.93366026 10.5418822 94.61815379 15.87548828 97.31396484 C17.24232592 98.00442247 18.61051 98.69222066 19.97998047 99.37744141 C69.19641571 124.10659808 107.87120306 164.83742565 125.9140625 217.34375 C129.48883608 228.77759964 131.80016256 240.41775605 132.9140625 252.34375 C132.99946289 253.24843018 133.08486328 254.15311035 133.17285156 255.08520508 C136.56665804 294.31164755 134.24106605 337.48906781 122.9140625 375.34375 C121.5940625 375.67375 120.2740625 376.00375 118.9140625 376.34375 C118.17542969 375.50972656 117.43679688 374.67570312 116.67578125 373.81640625 C98.18316907 353.18636425 74.04126915 337.25365086 45.6640625 335.53125 C44.90971924 335.48484375 44.15537598 335.4384375 43.37817383 335.390625 C36.08539148 335.0935969 29.08073621 336.06326332 21.90722656 337.31323242 C13.35576775 338.78142434 13.35576775 338.78142434 9.9140625 337.34375 C7.7734375 335.19140625 7.7734375 335.19140625 5.6640625 332.40625 C-6.97940953 316.24260207 -21.16330665 302.83178975 -37.640625 290.7265625 C-38.20007812 290.31365967 -38.75953125 289.90075684 -39.3359375 289.4753418 C-40.86888634 288.34889156 -42.41074115 287.23459019 -43.953125 286.12109375 C-44.65695312 285.53457031 -45.36078125 284.94804688 -46.0859375 284.34375 C-46.0859375 283.68375 -46.0859375 283.02375 -46.0859375 282.34375 C-19.31290842 271.39845185 -19.31290842 271.39845185 -6.5859375 267.78125 C-5.39931519 267.4416626 -5.39931519 267.4416626 -4.1887207 267.09521484 C22.51357121 259.8446819 50.90817159 260.55187544 75.17333984 274.30566406 C88.5748502 282.29770081 100.40092231 295.38897145 108.9140625 308.34375 C108.59983049 295.11743921 104.95107117 280.99831654 96.9140625 270.34375 C96.29015625 269.51617188 95.66625 268.68859375 95.0234375 267.8359375 C83.46503134 253.83742337 65.68915277 245.82679832 47.9140625 243.34375 C25.7116313 241.75867756 5.81227529 245.89262709 -15.45166016 251.5625 C-16.10798431 251.73707733 -16.76430847 251.91165466 -17.44052124 252.09152222 C-19.24272271 252.57251411 -21.04376408 253.05784665 -22.84472656 253.54345703 C-37.26600341 257.10423931 -53.35374534 256.83395125 -66.8359375 250.21875 C-77.21843632 243.86556029 -83.91894163 232.68036186 -86.93530273 221.07617188 C-88.92204888 212.04175486 -89.59511932 203.36630562 -89.5234375 194.09375 C-89.52039612 193.39432281 -89.51735474 192.69489563 -89.51422119 191.97427368 C-89.36288942 167.97204641 -85.758041 144.35957058 -81.62670898 120.76553345 C-79.78839118 110.26307587 -78.40543358 99.84129937 -77.4609375 89.21875 C-74.84956854 60.10865752 -74.84956854 60.10865752 -68.0859375 48.34375 C-67.67859375 47.62445312 -67.27125 46.90515625 -66.8515625 46.1640625 C-60.98777018 36.64363564 -52.52712935 29.53842363 -43.875 22.62890625 C-40.9963503 20.27034872 -38.25848185 17.80442472 -35.5234375 15.28125 C-14.04410197 -4.41836916 -14.04410197 -4.41836916 0 0 Z M-67.0859375 124.34375 C-69.06075211 135.07592703 -70.42279119 145.66915378 -70.5859375 156.59375 C-70.61623047 157.54451416 -70.64652344 158.49527832 -70.67773438 159.47485352 C-70.68291297 166.7915672 -68.67112864 171.55779786 -63.64282227 176.86767578 C-58.00762282 181.96246319 -52.61659218 182.59845058 -45.3425293 182.55102539 C-39.22250737 182.16149854 -33.30803309 180.7418722 -27.3359375 179.40625 C-24.79987481 178.85364989 -22.26342761 178.30281085 -19.7265625 177.75390625 C-18.61829102 177.50777588 -17.51001953 177.26164551 -16.36816406 177.00805664 C-11.42716861 176.00802327 -6.50053374 175.28464178 -1.46484375 175.02734375 C-0.67529297 174.98544922 0.11425781 174.94355469 0.92773438 174.90039062 C1.72759766 174.86107422 2.52746094 174.82175781 3.3515625 174.78125 C4.17849609 174.73806641 5.00542969 174.69488281 5.85742188 174.65039062 C7.87615799 174.54536967 9.89509201 174.44416441 11.9140625 174.34375 C8.2739119 171.14060397 5.03886596 169.42375945 0.4609375 167.86328125 C-0.80313314 167.42207362 -2.06704323 166.9804058 -3.33081055 166.53833008 C-3.98544281 166.31303619 -4.64007507 166.08774231 -5.31454468 165.85562134 C-26.9161348 158.38179793 -51.8178083 148.76250799 -63.0859375 127.34375 C-63.4159375 126.35375 -63.7459375 125.36375 -64.0859375 124.34375 C-65.0759375 124.34375 -66.0659375 124.34375 -67.0859375 124.34375 Z " class="yq-g" transform="translate(1153.0859375,472.65625)"/>
<path d="M0 0 C4.91454257 1.33764241 8.50474869 3.54515459 12.4375 6.6875 C13.29553223 7.36558716 13.29553223 7.36558716 14.17089844 8.05737305 C26.15234972 17.64014733 33.66106145 29.44402739 41.25 42.625 C41.7452417 43.48303223 42.2404834 44.34106445 42.75073242 45.22509766 C51.06821239 59.90826703 56.59552124 72.22838634 51.9609375 89.0234375 C49.15299107 97.72122277 44.8947069 103.6038083 38.61328125 110.2109375 C36.0867774 112.90738556 33.75260699 115.68382056 31.4375 118.5625 C28.57950453 122.10741719 25.64686415 125.52548875 22.5625 128.875 C7.03736571 146.04143965 -10.72333581 168.97570223 -10.265625 193.234375 C-9.70118011 199.11124244 -8.65829718 205.68340565 -6 211 C-5.62875 209.989375 -5.2575 208.97875 -4.875 207.9375 C-4.25300544 206.2905285 -3.62741699 204.64491346 -3 203 C-2.56300781 201.85015625 -2.12601563 200.7003125 -1.67578125 199.515625 C8.34926757 173.52388492 23.19739596 156.36915684 48.4375 144.3125 C98.11512141 122.79515817 157.33373822 130.30575117 209.69580078 135.59082031 C256.8658357 140.30252755 312.31689374 144.43523543 351.3125 112.625 C360.86467193 103.84732849 366.52199795 92.09123125 367.203125 79.13671875 C367.65836059 54.11289892 358.72624602 33.01560372 348.74365234 10.4230957 C348.38352051 9.60542725 348.02338867 8.78775879 347.65234375 7.9453125 C347.33257568 7.22875488 347.01280762 6.51219727 346.68334961 5.77392578 C346 4 346 4 346 2 C350.41888207 3.43293458 353.12804749 5.65366247 356.5 8.8125 C357.4178125 9.66457031 358.335625 10.51664063 359.28125 11.39453125 C361.89068686 13.89524158 364.44657382 16.44234629 367 19 C367.56203125 19.515625 368.1240625 20.03125 368.703125 20.5625 C388.21877512 38.69825567 400.99198317 69.38101875 402.12231445 95.8659668 C402.86129676 125.02562807 399.70508916 153.53197753 379 176 C351.03108934 204.29521462 309.05370655 211.65372078 270.85888672 212.23461914 C242.74740773 212.37095657 214.90899452 209.63678083 187.01560974 206.43873596 C160.54580475 203.41564435 132.59168511 201.16315205 106 204 C104.82655029 204.1235083 104.82655029 204.1235083 103.62939453 204.24951172 C77.04542894 207.24066782 47.69714025 215.06416584 29.8671875 236.4453125 C21.13228929 248.39640754 15.91844308 261.80937671 12 276 C9.72265625 276.2421875 9.72265625 276.2421875 7 276 C3.75186763 273.2198781 1.44198517 269.49441335 -1 266 C-1.66394775 265.05060547 -1.66394775 265.05060547 -2.34130859 264.08203125 C-31.02320974 222.67124239 -57.35711317 178.47410994 -48.609375 126.6875 C-42.95876451 96.96947444 -25.72664426 70.30980899 -9.5859375 45.23828125 C1.05001157 28.78113018 1.05001157 28.78113018 4 10 C2.94912123 6.50992554 1.61781267 3.26339895 0 0 Z " class="yq-g" transform="translate(1085,942)"/>
<path d="M0 0 C2.31 0.33 4.62 0.66 7 1 C6.76603516 2.27230469 6.76603516 2.27230469 6.52734375 3.5703125 C3.70819974 21.90518981 9.92978252 36.95000464 20 52 C22.79009747 55.57450209 25.77589944 58.81508122 29 62 C29.639375 62.66128906 30.27875 63.32257812 30.9375 64.00390625 C36.33246027 69.21973698 42.516286 72.89683734 48.92041016 76.72021484 C74.74348759 92.15463692 99.40161241 111.22440168 118 135 C118.70640625 135.87785156 119.4128125 136.75570312 120.140625 137.66015625 C153.49076117 180.30754262 164.08050949 231.277412 157.80053711 284.30102539 C153.75134173 315.50960627 145.78645507 345.48538329 135 375 C134.67 375 134.34 375 134 375 C134.01571045 373.72044434 134.01571045 373.72044434 134.03173828 372.41503906 C134.29457737 347.54846546 133.36663325 323.12724238 130.0625 298.4375 C129.82611816 296.66294434 129.82611816 296.66294434 129.58496094 294.85253906 C126.97483773 276.53983094 121.43437925 261.18876269 106.5 249.375 C77.93597831 229.10028611 45.84471368 229.95197986 12.58203125 235.578125 C-4.86304805 237.6327254 -24.32806891 238.20227198 -38.8203125 226.96484375 C-47.84640685 218.8284182 -53.39800759 207.43093759 -54.17700195 195.22705078 C-54.51200857 178.65289858 -53.7042777 163.16636737 -50 147 C-49.72623535 145.79891602 -49.4524707 144.59783203 -49.17041016 143.36035156 C-44.83132306 124.65406499 -39.65388133 106.25425826 -33.65826416 88.00665283 C-32.97062783 85.91046186 -32.28862748 83.81248587 -31.60693359 81.71435547 C-24.173096 58.90731484 -15.68924173 36.61614757 -6.5546875 14.4375 C-6.23958221 13.67044235 -5.92447693 12.9033847 -5.599823 12.11308289 C-3.88657644 7.98710796 -2.0528772 3.97239975 0 0 Z M-23 103 C-24.1641217 107.39119221 -25.30280655 111.78861992 -26.4375 116.1875 C-26.92573242 118.02731445 -26.92573242 118.02731445 -27.42382812 119.90429688 C-31.62362162 135.11272884 -31.62362162 135.11272884 -29.078125 150.22265625 C-25.71849181 155.76118197 -22.1662122 159.63847192 -16 162 C-6.91915233 164.15871575 2.56392084 162.8797956 11.75 162 C24.61728819 160.85437072 37.13160206 160.50180814 50 162 C47.02701341 158.72421743 44.14530868 156.82955282 40.1953125 154.86328125 C39.0611792 154.29077637 37.9270459 153.71827148 36.75854492 153.12841797 C36.16463959 152.83207458 35.57073425 152.5357312 34.95883179 152.23040771 C12.26182668 140.86962957 -11.30166965 128.39264141 -20 103 C-20.99 103 -21.98 103 -23 103 Z " class="yq-g" transform="translate(1039,682)"/>
<path d="M0 0 C17.16 0 34.32 0 52 0 C52 6.91305546 51.75968823 13.35330641 50.94140625 20.15625 C50.7167688 22.13922659 50.49378078 24.12239054 50.2722168 26.10571289 C50.09763443 27.66299606 50.09763443 27.66299606 49.91952515 29.2517395 C47.10763682 54.83465953 46.10417456 80.15753317 46.01824951 105.87762451 C46.00011314 110.53195809 45.96289165 115.18611338 45.92626953 119.84033203 C45.85574918 128.93629688 45.80758807 138.03221848 45.77285767 147.12838745 C45.75889498 150.7636307 45.73936373 154.39877693 45.71517944 158.03396606 C45.68743221 162.36447944 45.67587717 166.69477418 45.6756115 171.02537346 C45.67317046 172.62672507 45.66567609 174.22807913 45.65246773 175.82937813 C45.5258676 192.07312173 46.54170559 208.67614955 57.56787109 221.58154297 C59.94804276 223.93899223 62.63713868 225.27967547 65.625 226.75 C66.75164062 227.32234375 67.87828125 227.8946875 69.0390625 228.484375 C78.43678483 232.42998361 88.56291439 232.3454652 98.5871582 232.31567383 C100.79884479 232.31251948 103.00918124 232.33603816 105.22070312 232.36132812 C118.77053823 232.42177461 133.61295149 231.3532283 144.25 222.02734375 C154.70228267 211.13314472 156.36241227 197.4235032 156.25 182.9140625 C156.24468262 181.6527652 156.23936523 180.3914679 156.23388672 179.09194946 C156.09181039 164.48450234 155.065148 149.94036278 154 135.375 C153.71012976 131.33223273 153.42568742 127.28910696 153.14404297 123.24575806 C152.97052582 120.76445883 152.79278195 118.28344981 152.60986328 115.80282593 C152.52978027 114.67599396 152.44969727 113.54916199 152.3671875 112.38818359 C152.29612793 111.41642181 152.22506836 110.44466003 152.15185547 109.44345093 C151.93973218 104.63337622 152 99.81474973 152 95 C168.17 95 184.34 95 201 95 C200.52394361 114.1215985 199.96858611 133.2337237 199.18597412 152.34518433 C199.10503746 154.3312131 199.02591147 156.31731667 198.9487915 158.30349731 C198.5366082 168.84059083 197.96968698 179.3460148 197.04296875 189.8515625 C196.9664357 190.73814545 196.88990265 191.62472839 196.81105042 192.53817749 C194.67301856 215.39523191 186.67790393 235.66142772 169 251 C149.68532755 265.1228885 127.92876035 265.50874754 104.98217773 265.39111328 C101.6114024 265.3740043 98.24133663 265.38418329 94.87058544 265.40143681 C69.76183486 265.51061188 46.57919759 263.69716123 27.1875 245.6875 C10.84227513 228.14919303 6.92981206 204.60225811 6.78222656 181.57861328 C6.77060486 180.36199509 6.75898315 179.14537689 6.74700928 177.89189148 C6.72186518 175.25332712 6.69823788 172.61479214 6.67670441 169.9762001 C6.6412643 165.74395398 6.59491621 161.51186778 6.54632568 157.27975464 C6.53809351 156.55814907 6.52986134 155.83654351 6.52137971 155.0930711 C6.5045347 153.61667234 6.48767402 152.14027375 6.47079802 150.66387534 C6.35906943 140.83493794 6.25454871 131.00602682 6.17675781 121.17675781 C6.1058574 112.37010625 6.01277905 103.56390778 5.890625 94.7578125 C5.88071722 94.03767125 5.87080944 93.31753 5.86060143 92.57556629 C5.49902234 67.28494613 3.86661693 42.26125226 0.73035431 17.14429855 C0.02867036 11.30262205 0 5.98474106 0 0 Z " class="yq-w" transform="translate(1626,1334)"/>
<path d="M0 0 C16.17 0 32.34 0 49 0 C48.38139985 20.04614644 47.69456478 40.08482997 46.80761719 60.12084961 C46.68346128 62.93834115 46.56569263 65.75599669 46.453125 68.57397461 C45.24326345 98.73863278 43.79357675 129.4537315 21 152 C20.48308594 152.55042969 19.96617187 153.10085938 19.43359375 153.66796875 C10.85732684 162.02031224 -2.43971342 167.01024939 -14 169 C-14.92504333 169.17142517 -15.85008667 169.34285034 -16.80316162 169.51947021 C-22.79247486 170.35922604 -28.86111885 170.15598425 -34.89550781 170.16113281 C-36.30411914 170.16576783 -37.71272923 170.1707934 -39.12133789 170.17617798 C-42.93612659 170.18924691 -46.75089773 170.19573731 -50.5657053 170.20018864 C-52.9580998 170.20313112 -55.35048964 170.2072383 -57.74288177 170.21169281 C-65.25377416 170.22535951 -72.76465572 170.23502757 -80.27555966 170.2388947 C-88.896466 170.24335946 -97.51721253 170.26083687 -106.13807034 170.2898953 C-112.8314499 170.31165926 -119.52478501 170.32160692 -126.21819949 170.32293582 C-130.20102272 170.32397433 -134.1836956 170.3296738 -138.16648102 170.34775543 C-167.57912481 170.47355432 -199.04472641 170.17465401 -221.66796875 148.35546875 C-222.43753906 147.57816406 -223.20710937 146.80085938 -224 146 C-225.13888672 144.91138672 -225.13888672 144.91138672 -226.30078125 143.80078125 C-246.4752227 123.27790385 -249.85972192 93.45612766 -251.93530273 66.1875 C-252.18973719 62.84561543 -252.45612749 59.50484532 -252.72460938 56.1640625 C-252.89391021 54.02349126 -253.06255418 51.88286793 -253.23046875 49.7421875 C-253.3085527 48.7515329 -253.38663666 47.7608783 -253.46708679 46.74020386 C-253.53748672 45.81128326 -253.60788666 44.88236267 -253.68041992 43.92529297 C-253.74243088 43.11639618 -253.80444183 42.30749939 -253.86833191 41.47409058 C-254.01846453 38.65304488 -254 35.82503781 -254 33 C-237.83 33 -221.66 33 -205 33 C-205 46.45384615 -205 46.45384615 -205.4375 51.234375 C-205.52813721 52.29132568 -205.61877441 53.34827637 -205.7121582 54.43725586 C-205.807146 55.53046143 -205.90213379 56.62366699 -206 57.75 C-209.19173677 91.24688279 -209.19173677 91.24688279 -196.25390625 121.25390625 C-186.46931568 131.97423729 -172.02390799 135.75815749 -158 137 C-153.97696287 137.1488456 -149.95664741 137.15707419 -145.93115234 137.16113281 C-144.74302948 137.16609772 -143.55490662 137.17106262 -142.33078003 137.17617798 C-139.09074179 137.18822477 -135.85073949 137.19572866 -132.61068296 137.20018864 C-130.57897008 137.2031351 -128.54726263 137.20724278 -126.51555252 137.21169281 C-120.13715214 137.22534417 -113.75876444 137.23502187 -107.38035047 137.2388947 C-100.05776371 137.24336728 -92.73536436 137.26088778 -85.41283453 137.2898953 C-79.72587349 137.31162895 -74.03896474 137.32160519 -68.35196269 137.32293582 C-64.96789916 137.3239757 -61.58401233 137.32970635 -58.19999313 137.34775543 C-31.44785723 138.29906773 -31.44785723 138.29906773 -7.97265625 127.1796875 C2.18623135 116.22613004 4.24706568 102.95808477 4.203125 88.48046875 C4.20119141 87.44899216 4.19925781 86.41751556 4.19726562 85.3547821 C4.08286897 71.99878787 3.09156273 58.68621171 2.14575195 45.36895752 C1.80467059 40.55653947 1.47119157 35.74360597 1.14404297 30.93022156 C0.97066034 28.38986911 0.79293389 25.84980755 0.60986328 23.31013489 C0.52978027 22.14729477 0.44969727 20.98445465 0.3671875 19.78637695 C0.29612793 18.78621048 0.22506836 17.78604401 0.15185547 16.75556946 C-0.0738051 11.17471067 0 5.58541919 0 0 Z " class="yq-w" transform="translate(895,1429)"/>
<path d="M0 0 C20.85064459 18.29398995 31.46363875 47.13488822 33.53710938 74.34863281 C35.32373028 112.29231796 28.60302883 145.17428929 2.98632812 174.24316406 C-8.23776882 186.13239268 -21.44808323 193.30100206 -36.46289062 199.34863281 C-38.80107031 200.33773247 -41.13200952 201.34238904 -43.46289062 202.34863281 C-27.26990038 217.94847323 -9.30779922 231.95309036 14.03710938 232.97363281 C14.74480469 233.01230469 15.4525 233.05097656 16.18164062 233.09082031 C20.97112128 233.33598568 25.74179492 233.38103359 30.53710938 233.34863281 C30.86710937 235.98863281 31.19710938 238.62863281 31.53710938 241.34863281 C13.40330631 249.74817357 -5.76647598 255.94892255 -25.65039062 249.22363281 C-42.53094476 242.65897287 -55.85544806 230.14099885 -68.38476562 217.37988281 C-69.05161377 216.7019165 -69.71846191 216.0239502 -70.40551758 215.32543945 C-71.71106751 213.99080984 -73.00941173 212.64908375 -74.29956055 211.29956055 C-79.39127058 206.08050641 -83.0128751 204.43169324 -90.33691406 203.46337891 C-111.86486573 200.57274939 -130.0651853 191.69396499 -145.46289062 176.34863281 C-146.22085937 175.61386719 -146.97882813 174.87910156 -147.75976562 174.12207031 C-168.55122553 152.6853582 -174.68753556 121.12491526 -174.71289062 92.34863281 C-174.71356537 91.659216 -174.71424011 90.96979919 -174.7149353 90.25949097 C-174.69847294 79.65972845 -174.16407466 69.65234287 -171.46289062 59.34863281 C-171.29660156 58.69475586 -171.1303125 58.04087891 -170.95898438 57.3671875 C-163.6168985 29.1545427 -145.92174848 4.00595955 -120.68554688 -10.87011719 C-82.88779135 -31.76196752 -33.22525349 -27.90354724 0 0 Z M-116.75585938 9.09082031 C-131.00003082 27.93093724 -138.99412255 50.97949867 -141.46289062 74.34863281 C-141.66398437 76.16041016 -141.66398437 76.16041016 -141.86914062 78.00878906 C-144.93052535 110.79077886 -137.97312642 147.40368827 -117.40039062 173.78613281 C-116.10378171 175.3205368 -114.79245634 176.84269613 -113.46289062 178.34863281 C-112.934375 178.97125 -112.40585938 179.59386719 -111.86132812 180.23535156 C-101.83296828 191.22702676 -87.07553897 197.52304279 -72.33789062 198.37988281 C-56.72820925 198.21021236 -44.43696436 193.16813596 -32.46289062 183.34863281 C-31.83898438 182.83945313 -31.21507812 182.33027344 -30.57226562 181.80566406 C-8.30738309 161.56959092 -0.92530483 126.58289784 0.46240234 97.89160156 C1.40053336 66.05984575 -5.44668218 31.21622787 -26.46289062 6.34863281 C-26.97078125 5.68476562 -27.47867187 5.02089844 -28.00195312 4.33691406 C-36.29626287 -6.06161712 -49.40502046 -14.38056564 -62.74023438 -15.91308594 C-85.27884197 -17.55690659 -102.39174817 -8.06537808 -116.75585938 9.09082031 Z " class="yq-w" transform="translate(1304.462890625,1786.6513671875)"/>
<path d="M0 0 C31.02 0 62.04 0 94 0 C94 1.98 94 3.96 94 6 C92.94941406 6.09796875 91.89882812 6.1959375 90.81640625 6.296875 C77.16842138 7.49163458 77.16842138 7.49163458 66.0625 14.875 C60.70311758 22.9952764 60.84967388 32.17907106 60.83886719 41.59082031 C60.83390228 42.6342157 60.82893738 43.67761108 60.82382202 44.75262451 C60.80925616 48.19446483 60.80240492 51.63625895 60.796875 55.078125 C60.79404762 56.26157249 60.79122025 57.44501999 60.78830719 58.66432953 C60.773331 64.93670371 60.76409375 71.20905502 60.75976562 77.48144531 C60.75430736 83.91290126 60.73033083 90.34414268 60.70179367 96.77553177 C60.68301764 101.7603208 60.67795362 106.74505991 60.67642975 111.72988129 C60.67343241 114.09777743 60.66550468 116.46567333 60.65224457 118.83353424 C60.51959238 144.35937788 61.97971199 172.0977611 80.55078125 191.80078125 C96.06526789 205.73165203 113.95999092 208.85203171 134.21191406 208.17919922 C150.98401887 207.10120229 164.60077727 199.40853523 175.74609375 187.06640625 C185.50983484 174.86806998 189.74029454 160.21065784 191.0949707 144.91430664 C191.22310009 143.47442556 191.22310009 143.47442556 191.35381794 142.00545597 C192.21274744 131.58315767 192.27187687 121.1970896 192.23046875 110.74609375 C192.22927123 108.70117726 192.22882499 106.65626021 192.2290802 104.61134338 C192.22753416 100.37196294 192.21938708 96.1326692 192.20581055 91.89331055 C192.1887251 86.49420861 192.18500022 81.09520032 192.18575573 75.69607449 C192.18548246 71.49132922 192.17997779 67.2866039 192.17275429 63.08186531 C192.16960358 61.09140231 192.16760878 59.10093708 192.16686058 57.11047173 C193.53230216 35.07569061 193.53230216 35.07569061 186.5625 15.22265625 C178.25381352 7.3563304 166.80214601 7.12660418 156 6 C156 4.02 156 2.04 156 0 C180.75 0 205.5 0 231 0 C231 1.98 231 3.96 231 6 C229.84242188 6.18175781 228.68484375 6.36351562 227.4921875 6.55078125 C225.95304092 6.80417733 224.41398298 7.05811219 222.875 7.3125 C222.11445312 7.43044922 221.35390625 7.54839844 220.5703125 7.66992188 C214.79533068 8.64071623 210.00922983 9.99077017 205.75 14.25 C197.9662575 26.48159536 200.85323344 45.89038429 200.83133507 59.79605484 C200.82407104 63.45726209 200.80833285 67.11834276 200.78999329 70.7795105 C200.73798521 81.18013782 200.6896139 91.58069071 200.67407227 101.98144531 C200.66390464 108.37145918 200.63436862 114.76114454 200.59275246 121.15102768 C200.58057091 123.56271743 200.57529724 125.97445379 200.57755089 128.38617325 C200.59774057 157.03921124 196.37289392 184.27321123 176 206 C160.51116741 220.96297717 140.71115423 227.17848385 119.57446289 227.24023438 C117.59964848 227.24981969 115.62497632 227.28095395 113.65039062 227.3125 C90.93474144 227.40359032 71.1859266 219.9197107 55 204 C53.948125 202.96746094 53.948125 202.96746094 52.875 201.9140625 C43.29843817 191.85119089 37.37517643 179.37758876 34 166 C33.75293304 165.07988129 33.50586609 164.15976257 33.25131226 163.21176147 C30.28165955 150.61631427 30.55912828 138.03938893 30.55859375 125.16015625 C30.54679596 122.66400895 30.53342596 120.16786864 30.51856995 117.67173767 C30.48257961 111.13335701 30.46224467 104.59503829 30.44702148 98.05657959 C30.42209056 87.59853419 30.38208769 77.14062567 30.32512093 66.68270683 C30.30897454 63.05813643 30.30503134 59.43369896 30.30210876 55.80909729 C31.51927239 32.80398837 31.51927239 32.80398837 22.8125 12.8125 C15.73173345 8.24933934 8.20638618 7.16257138 0 6 C0 4.02 0 2.04 0 0 Z " class="yq-w" transform="translate(1394,1767)"/>
<path d="M0 0 C3 1 3 1 4.63134766 4.2265625 C5.23692285 5.68806222 5.83019346 7.15469402 6.4140625 8.625 C6.74053268 9.42120255 7.06700287 10.21740509 7.40336609 11.03773499 C8.48739336 13.68780755 9.55593897 16.34385865 10.625 19 C11.38709193 20.86953785 12.15037555 22.73859032 12.91479492 24.60717773 C14.5020803 28.48997352 16.08419765 32.37481457 17.66259766 36.26123047 C20.82959796 44.04958079 24.05338963 51.81417175 27.2802124 59.57788086 C28.32493203 62.09242272 29.36802843 64.60763215 30.41064453 67.12304688 C36.34519052 81.43912707 42.30634597 95.74408925 48.27087402 110.04769897 C53.85927091 123.44954248 59.43136774 136.85797627 64.98544312 150.27407837 C67.98525355 157.518145 70.99047396 164.75996457 74 172 C74.42859314 173.0311795 74.42859314 173.0311795 74.86584473 174.08319092 C76.63189774 178.32959886 78.40701323 182.5721179 80.1875 186.8125 C80.80153687 188.28662354 80.80153687 188.28662354 81.42797852 189.79052734 C87.51397229 206.07816482 87.51397229 206.07816482 100.12890625 216.94921875 C105.28084571 218.78599716 110.6443296 219.92380146 116 221 C116 222.65 116 224.3 116 226 C84.65 226 53.3 226 21 226 C21 224.35 21 222.7 21 221 C22.27875 220.75765625 23.5575 220.5153125 24.875 220.265625 C26.58345328 219.92768919 28.29178005 219.58911329 30 219.25 C30.83917969 219.09273437 31.67835938 218.93546875 32.54296875 218.7734375 C39.16923916 217.43791013 45.80473409 215.860498 50.0625 210.3125 C52.19391627 202.78149585 49.45885451 195.70053522 46.62109375 188.6953125 C46.28956802 187.8495163 45.9580423 187.00372009 45.61647034 186.1322937 C44.56705691 183.45901724 43.50329604 180.79178239 42.4375 178.125 C41.37023566 175.43604204 40.30616529 172.74591672 39.24781799 170.05343628 C38.5913215 168.38511977 37.92935188 166.71894429 37.26133728 165.0552063 C36.8157119 163.92790604 36.8157119 163.92790604 36.36108398 162.77783203 C35.96589821 161.78929733 35.96589821 161.78929733 35.56272888 160.78079224 C35 159 35 159 35 156 C6.29 156 -22.42 156 -52 156 C-52.99 159.3 -53.98 162.6 -55 166 C-55.84491483 168.31119638 -56.71876307 170.61214155 -57.62890625 172.8984375 C-58.10650391 174.12046875 -58.58410156 175.3425 -59.07617188 176.6015625 C-59.81711183 178.48776927 -60.56145251 180.37238179 -61.31420898 182.25390625 C-67.16919437 196.24729474 -67.16919437 196.24729474 -67.4375 211.125 C-66.29646058 214.13786741 -66.29646058 214.13786741 -63.7578125 215.0859375 C-55.03585882 217.97678334 -46.06950809 219.63314151 -37 221 C-37 222.65 -37 224.3 -37 226 C-61.75 226 -86.5 226 -112 226 C-112 224.35 -112 222.7 -112 221 C-110.53240234 220.65388672 -110.53240234 220.65388672 -109.03515625 220.30078125 C-96.62111998 217.2682118 -88.11609844 214.21203053 -81.07807922 202.84632874 C-72.85049826 188.7556953 -67.36770206 173.07995582 -61.625 157.875 C-60.75358585 155.58583872 -59.88125226 153.29702725 -59.00805664 151.00854492 C-57.66281828 147.48265284 -56.31809984 143.95657346 -54.97615051 140.4294281 C-50.51454041 128.70380676 -45.98134195 117.00644608 -41.4375 105.3125 C-40.65558074 103.29821574 -39.87376117 101.28389278 -39.09204102 99.26953125 C-37.52492058 95.23147452 -35.95743616 91.19355942 -34.38964844 87.15576172 C-30.68473777 77.61297746 -26.98431423 68.06845316 -23.28366089 58.52401733 C-22.08017377 55.42057549 -20.87620906 52.31731933 -19.67211914 49.21411133 C-16.16340756 40.16997951 -12.6593522 31.12416096 -9.17578125 22.0703125 C-8.60478039 20.58803641 -8.03373717 19.10577664 -7.46264648 17.62353516 C-6.43451369 14.95504258 -5.40971779 12.28530374 -4.38696289 9.61474609 C-3.94731201 8.47344238 -3.50766113 7.33213867 -3.0546875 6.15625 C-2.67812012 5.17462891 -2.30155273 4.19300781 -1.91357422 3.18164062 C-1 1 -1 1 0 0 Z M-11 48 C-11.22755981 48.59799911 -11.45511963 49.19599823 -11.6895752 49.81211853 C-14.38429928 56.89236988 -17.08170784 63.97159582 -19.78055191 71.05027771 C-20.49672877 72.92891906 -21.21265541 74.80765562 -21.92855835 76.68640137 C-26.88914056 89.70201104 -31.86387305 102.71130044 -36.95703125 115.67578125 C-37.33274261 116.63286484 -37.70845398 117.58994843 -38.09555054 118.57603455 C-39.84769324 123.03545939 -41.6067229 127.49201741 -43.375 131.94506836 C-43.99620941 133.52062498 -44.61731009 135.09622447 -45.23828125 136.671875 C-45.52161819 137.37866898 -45.80495514 138.08546295 -46.09687805 138.81367493 C-47.23230138 141.70521606 -48 143.86218857 -48 147 C-21.93 147 4.14 147 31 147 C27.7 138.75 24.4 130.5 21 122 C19.33253464 117.82192815 17.66562551 113.64364737 16 109.46484375 C14.7502441 106.33315446 13.50016816 103.20159309 12.25 100.07006836 C11.41605034 97.98014492 10.58271785 95.8899751 9.75 93.79956055 C3.64329526 78.4719702 -2.60967058 63.21157817 -9 48 C-9.66 48 -10.32 48 -11 48 Z " class="yq-w" transform="translate(968,1763)"/>
<path d="M0 0 C62.04 0 124.08 0 188 0 C188 22.44 188 44.88 188 68 C186.02 68 184.04 68 182 68 C181.82984375 66.92363281 181.6596875 65.84726563 181.484375 64.73828125 C178.64846744 47.39776349 174.92539915 29.95898832 161 18 C148.44350069 10.02857085 135.42269145 7.68075373 120.75 6.8125 C119.51636719 6.73064453 118.28273438 6.64878906 117.01171875 6.56445312 C114.00829836 6.36655333 111.00462073 6.17857168 108 6 C108.08407199 29.21008108 108.17926811 52.42009314 108.28752708 75.6300745 C108.33754287 86.4080725 108.38398663 97.18606331 108.421875 107.96411133 C108.45492684 117.36369493 108.49482989 126.76322087 108.54279006 136.16274065 C108.56792453 141.13475196 108.58974356 146.10672568 108.60334396 151.07878304 C108.61628377 155.769631 108.63846339 160.46034916 108.66738319 165.15112495 C108.67636673 166.86218349 108.68212729 168.57326287 108.68421364 170.28434372 C107.84787385 191.88835652 107.84787385 191.88835652 116.4765625 210.48046875 C122.0858465 214.69360938 128.93129805 215.36733001 135.68359375 216.421875 C139 217 139 217 140 218 C140 219.65 140 221.3 140 223 C109.31 223 78.62 223 47 223 C47 218 47 218 48 217 C51.24272146 216.40663489 54.48616078 215.85843075 57.74609375 215.36914062 C63.90358524 214.32385218 68.57438938 212.2234764 73.25 207.9375 C79.15368786 198.02773823 78.44337432 186.62055923 78.43237305 175.4934082 C78.44140282 173.6395859 78.45173301 171.78576954 78.46325684 169.93196106 C78.49071017 164.92862377 78.50009544 159.92540013 78.50611091 154.92199731 C78.51552506 149.68226174 78.54173084 144.44261006 78.56611633 139.20292664 C78.60970154 129.29392204 78.63829746 119.38493381 78.66143972 109.47586268 C78.68853424 98.18919583 78.73244308 86.90261369 78.77772844 75.61600745 C78.8704604 52.41071763 78.94219347 29.20540125 79 6 C74.677709 6.28750145 70.35640885 6.5879464 66.03515625 6.890625 C64.8191272 6.97135254 63.60309814 7.05208008 62.35021973 7.13525391 C46.807514 8.23962481 33.99417467 11.59610727 22 22 C11.26356559 35.62526316 8.64125778 51.36164415 6 68 C4.02 68 2.04 68 0 68 C0 45.56 0 23.12 0 0 Z " class="yq-w" transform="translate(1670,1767)"/>
<path d="M0 0 C27.72 0 55.44 0 84 0 C84 1.65 84 3.3 84 5 C82.2984375 5.23783203 82.2984375 5.23783203 80.5625 5.48046875 C68.98966045 7.18032967 68.98966045 7.18032967 59 13 C57.46247754 16.07504491 57.77905882 18.59470025 58 22 C62.43709283 34.31857297 70.45634289 45.52148942 77.27853394 56.63069153 C82.22825072 64.69378536 87.04554608 72.82775069 91.8125 81 C93.21564954 83.40133187 94.61954377 85.80222815 96.0234375 88.203125 C96.3597821 88.77845474 96.69612671 89.35378448 97.04266357 89.94654846 C100.32404037 95.5577986 103.61715487 101.16171545 106.9375 106.75 C107.42774658 107.58402344 107.91799316 108.41804688 108.4230957 109.27734375 C108.86999756 110.02628906 109.31689941 110.77523438 109.77734375 111.546875 C110.16140381 112.19495117 110.54546387 112.84302734 110.94116211 113.51074219 C111.94355219 115.16753528 111.94355219 115.16753528 114 116 C114.21914063 115.36320312 114.43828125 114.72640625 114.6640625 114.0703125 C116.53291755 109.77522457 118.9463977 105.87428279 121.375 101.875 C121.9102832 100.98828613 122.44556641 100.10157227 122.99707031 99.18798828 C126.99150243 92.59729229 131.08297904 86.07180571 135.21630859 79.56762695 C141.60801051 69.49694448 147.84273592 59.33022036 154.06347656 49.15332031 C155.89989491 46.16300521 157.75575796 43.18572623 159.6171875 40.2109375 C160.7035348 38.45337823 161.78949632 36.69558043 162.875 34.9375 C163.36871094 34.15963135 163.86242187 33.3817627 164.37109375 32.58032227 C167.40476478 27.62305747 169.46071397 22.84559426 170 17 C169.10366069 13.89728701 168.06097397 12.72744998 165.421875 10.91796875 C157.69626312 6.85746014 148.52549927 6.21398695 140 5 C140 3.35 140 1.7 140 0 C162.11 0 184.22 0 207 0 C207 1.65 207 3.3 207 5 C206.29875 5.21914062 205.5975 5.43828125 204.875 5.6640625 C188.65425365 11.08567066 181.05063111 22.76633411 172.5 37 C171.45545074 38.71793576 170.41089026 40.43586482 169.36567688 42.15339661 C168.28905405 43.92440832 167.21536505 45.69717279 166.14208984 47.47021484 C162.72882983 53.10266543 159.26808327 58.70595831 155.8125 64.3125 C154.47525986 66.48567674 153.13802026 68.65885382 151.80078125 70.83203125 C148.92971676 75.49399348 146.05580479 80.15413195 143.1652832 84.80406189 C142.12082902 86.49493575 141.08491851 88.19114931 140.06167603 89.89494324 C137.21499864 94.60063415 134.23702134 99.07293723 130.90698242 103.45166016 C117.90328677 121.26288301 116.81721927 136.02845929 117.72650146 157.53515625 C117.8422139 160.68345436 117.88487535 163.83089933 117.92461109 166.98093987 C117.97407184 170.7977457 118.05437337 174.61364649 118.14453125 178.4296875 C118.16890227 179.48529184 118.16890227 179.48529184 118.19376564 180.56222153 C118.41150349 195.79186708 118.41150349 195.79186708 124.1875 209.5625 C129.90305737 214.51598305 136.455562 215.42219267 143.77734375 216.5703125 C146 217 146 217 147 218 C147 219.65 147 221.3 147 223 C117.96 223 88.92 223 59 223 C59 218 59 218 60 217 C63.05697833 216.40820518 66.11445988 215.85813955 69.18945312 215.36914062 C75.11694091 214.29833089 80.17607177 211.749465 84 207 C87.2960039 199.70371787 87.54001593 191.86259814 88 184 C88.08054626 182.71796692 88.08054626 182.71796692 88.16271973 181.41003418 C90.99433053 143.16274605 90.99433053 143.16274605 74.34814453 110.02783203 C70.45563098 105.00860214 67.36466186 99.53625741 64.18341064 94.04949951 C62.32568203 90.85995195 60.42074094 87.69890792 58.51953125 84.53515625 C57.76382754 83.27360451 57.00813091 82.01204853 56.25244141 80.75048828 C51.22210534 72.36605088 46.13540993 64.01563844 41.05078125 55.6640625 C38.38909531 51.2917014 35.74113447 46.91152986 33.10546875 42.5234375 C21.25445844 20.61242333 21.25445844 20.61242333 2.4375 5.5 C1.2309375 5.2525 1.2309375 5.2525 0 5 C0 3.35 0 1.7 0 0 Z " class="yq-w" transform="translate(646,1767)"/>
<path d="M0 0 C5.16424572 4.36091861 9.43654668 8.79408576 13.46240234 14.25708008 C18.54615331 21.13855488 23.07584009 26.67526072 31.8125 28.375 C44.06639758 28.375 52.11648243 18.644658 60.6328125 10.90234375 C76.13925079 -3.07771621 76.13925079 -3.07771621 86.9375 -2.75 C97.09387547 -1.13132766 103.97908612 8.16031553 109.7421875 16 C114.22420391 22.04802214 118.42323279 26.24529082 125.8125 28.375 C131.11296746 28.79790964 135.19799929 26.79211942 139.8125 24.375 C140.4725 24.705 141.1325 25.035 141.8125 25.375 C136.67689895 30.63352767 131.40008378 35.60265386 125.8125 40.375 C124.74710541 41.29263167 123.68202675 42.21063021 122.6171875 43.12890625 C119.61678624 45.71384156 116.6055242 48.2857733 113.59082031 50.85400391 C111.89456824 52.3048071 110.20833783 53.76651386 108.5234375 55.23046875 C94.65723065 67.18969336 94.65723065 67.18969336 84.12890625 66.69140625 C76.58124779 65.66044447 70.94794631 60.09061666 66.42578125 54.33984375 C65.14100064 52.63589726 63.86581035 50.92513632 62.59277344 49.21240234 C58.79303026 44.17272767 54.54473738 39.24111869 48.8125 36.375 C42.50375774 35.63154553 37.32183097 35.72703204 32.08984375 39.50390625 C26.00007066 44.50733903 20.05377944 49.66831506 14.11962891 54.85449219 C12.54515883 56.22396541 10.9612722 57.58173138 9.375 58.9375 C8.46878906 59.72253906 7.56257813 60.50757813 6.62890625 61.31640625 C0.35137999 65.9048339 -5.57405973 67.53637224 -13.1875 66.375 C-21.68876478 63.85556104 -26.66656477 56.57129152 -31.94775391 49.93164062 C-38.79225805 40.62835872 -38.79225805 40.62835872 -48.796875 36.0703125 C-53.95724809 35.94478991 -58.38759228 36.29936423 -63.1875 38.375 C-55.60572171 28.89777714 -46.28273973 21.1436218 -36.8515625 13.57421875 C-34.12411408 11.32267408 -31.53220872 8.96515324 -28.9375 6.5625 C-20.40444104 -1.19852029 -11.12016484 -5.66910364 0 0 Z " fill="#FAFCF7" transform="translate(1277.1875,972.625)"/>
<path d="M0 0 C5.36821386 4.85998059 7.73587507 10.04721919 8.11328125 17.2734375 C7.73673419 24.41675663 5.03942213 29.84899159 -0.01953125 34.79296875 C-5.66852691 38.97322554 -11.00833791 40.03949454 -18.01953125 39.79296875 C-24.78146301 38.59719678 -30.04656537 35.69209222 -34.2734375 30.1484375 C-37.91545332 24.12071097 -37.84125778 17.63213019 -37.01953125 10.79296875 C-35.4901777 4.91451605 -32.11627184 1.34555878 -27.15234375 -2.015625 C-18.12732682 -7.05707219 -8.22568575 -6.12922779 0 0 Z " class="yq-w" transform="translate(1757.01953125,1634.20703125)"/>
<path d="M0 0 C5.36821386 4.85998059 7.73587507 10.04721919 8.11328125 17.2734375 C7.73673419 24.41675663 5.03942213 29.84899159 -0.01953125 34.79296875 C-5.66852691 38.97322554 -11.00833791 40.03949454 -18.01953125 39.79296875 C-24.78146301 38.59719678 -30.04656537 35.69209222 -34.2734375 30.1484375 C-37.91545332 24.12071097 -37.84125778 17.63213019 -37.01953125 10.79296875 C-35.4901777 4.91451605 -32.11627184 1.34555878 -27.15234375 -2.015625 C-18.12732682 -7.05707219 -8.22568575 -6.12922779 0 0 Z " class="yq-w" transform="translate(780.01953125,1406.20703125)"/>
<path d="M0 0 C5.36821386 4.85998059 7.73587507 10.04721919 8.11328125 17.2734375 C7.73673419 24.41675663 5.03942213 29.84899159 -0.01953125 34.79296875 C-5.66852691 38.97322554 -11.00833791 40.03949454 -18.01953125 39.79296875 C-24.78146301 38.59719678 -30.04656537 35.69209222 -34.2734375 30.1484375 C-37.91545332 24.12071097 -37.84125778 17.63213019 -37.01953125 10.79296875 C-35.4901777 4.91451605 -32.11627184 1.34555878 -27.15234375 -2.015625 C-18.12732682 -7.05707219 -8.22568575 -6.12922779 0 0 Z " class="yq-w" transform="translate(1495.01953125,1354.20703125)"/>
<path d="M0 0 C5.5915583 5.44970058 9.25852636 10.26417182 9.375 18.3125 C9.2167557 24.86205584 7.60791382 29.13751759 3.19921875 33.9765625 C-1.94133931 38.82765224 -6.35372638 40.66852058 -13.4375 41.3125 C-21.06359686 40.64354413 -26.82805008 37.66582312 -32 32 C-35.62897509 25.95170818 -37.17498951 20.0584294 -35.5390625 13.015625 C-33.40382594 6.53455403 -29.76716528 1.69418283 -23.9375 -1.875 C-16.09485925 -4.87856454 -7.12478146 -4.90818278 0 0 Z " class="yq-w" transform="translate(1808,1633)"/>
<path d="M0 0 C5.5915583 5.44970058 9.25852636 10.26417182 9.375 18.3125 C9.2167557 24.86205584 7.60791382 29.13751759 3.19921875 33.9765625 C-1.94133931 38.82765224 -6.35372638 40.66852058 -13.4375 41.3125 C-21.06359686 40.64354413 -26.82805008 37.66582312 -32 32 C-35.62897509 25.95170818 -37.17498951 20.0584294 -35.5390625 13.015625 C-33.40382594 6.53455403 -29.76716528 1.69418283 -23.9375 -1.875 C-16.09485925 -4.87856454 -7.12478146 -4.90818278 0 0 Z " class="yq-w" transform="translate(831,1405)"/>
<path d="M0 0 C5.5915583 5.44970058 9.25852636 10.26417182 9.375 18.3125 C9.2167557 24.86205584 7.60791382 29.13751759 3.19921875 33.9765625 C-1.94133931 38.82765224 -6.35372638 40.66852058 -13.4375 41.3125 C-21.06359686 40.64354413 -26.82805008 37.66582312 -32 32 C-35.62897509 25.95170818 -37.17498951 20.0584294 -35.5390625 13.015625 C-33.40382594 6.53455403 -29.76716528 1.69418283 -23.9375 -1.875 C-16.09485925 -4.87856454 -7.12478146 -4.90818278 0 0 Z " class="yq-w" transform="translate(1546,1353)"/>
</svg>
